<?xml version="1.0" encoding="UTF-8"?>
<svg id="Layer_1" xmlns="http://www.w3.org/2000/svg" xmlns:xlink="http://www.w3.org/1999/xlink" version="1.1" viewBox="0 0 720 432">
  <!-- Generator: Adobe Illustrator 29.5.0, SVG Export Plug-In . SVG Version: 2.1.0 Build 137)  -->
  <defs>
    <style>
      .st0, .st1 {
        fill: none;
      }

      .st2 {
        fill: #a1d99b;
      }

      .st3 {
        clip-path: url(#clippath-1);
      }

      .st4 {
        clip-path: url(#clippath-3);
      }

      .st5 {
        clip-path: url(#clippath-4);
      }

      .st6 {
        clip-path: url(#clippath-2);
      }

      .st7 {
        clip-path: url(#clippath-7);
      }

      .st8 {
        clip-path: url(#clippath-6);
      }

      .st9 {
        clip-path: url(#clippath-8);
      }

      .st10 {
        clip-path: url(#clippath-5);
      }

      .st11 {
        fill: #41ab5d;
      }

      .st12 {
        fill: #fff;
      }

      .st13 {
        font-size: 16px;
      }

      .st13, .st14 {
        font-family: ArialMT, Arial;
        isolation: isolate;
      }

      .st14 {
        font-size: 14px;
      }

      .st1 {
        stroke: #b0b0b0;
        stroke-dasharray: 3 1.3;
        stroke-opacity: .4;
      }

      .st1, .st15 {
        stroke-linejoin: round;
        stroke-width: .8px;
      }

      .st15 {
        stroke: #000;
      }

      .st16 {
        fill: #006d2c;
      }

      .st17 {
        clip-path: url(#clippath);
      }
    </style>
    <clipPath id="clippath">
      <rect class="st0" x="87.4" y="39.5" width="621.8" height="341.9"/>
    </clipPath>
    <clipPath id="clippath-1">
      <rect class="st0" x="87.4" y="39.5" width="621.8" height="341.9"/>
    </clipPath>
    <clipPath id="clippath-2">
      <rect class="st0" x="87.4" y="39.5" width="621.8" height="341.9"/>
    </clipPath>
    <clipPath id="clippath-3">
      <rect class="st0" x="87.4" y="39.5" width="621.8" height="341.9"/>
    </clipPath>
    <clipPath id="clippath-4">
      <rect class="st0" x="87.4" y="39.5" width="621.8" height="341.9"/>
    </clipPath>
    <clipPath id="clippath-5">
      <rect class="st0" x="87.4" y="39.5" width="621.8" height="341.9"/>
    </clipPath>
    <clipPath id="clippath-6">
      <rect class="st0" x="87.4" y="39.5" width="621.8" height="341.9"/>
    </clipPath>
    <clipPath id="clippath-7">
      <rect class="st0" x="87.4" y="39.5" width="621.8" height="341.9"/>
    </clipPath>
    <clipPath id="clippath-8">
      <rect class="st0" x="87.4" y="39.5" width="621.8" height="341.9"/>
    </clipPath>
  </defs>
  <g id="patch_1">
    <path class="st12" d="M0,432h720V0H0v432Z"/>
  </g>
  <g id="patch_2">
    <g class="st17">
      <path class="st11" d="M115.7,381.4h161.5V99.1H115.7v282.3Z"/>
    </g>
  </g>
  <g id="patch_3">
    <g class="st3">
      <path class="st16" d="M317.6,381.4h161.5V55.8h-161.5v325.6Z"/>
    </g>
  </g>
  <g id="patch_4">
    <g class="st6">
      <path class="st2" d="M519.4,381.4h161.5V110.5h-161.5v270.9Z"/>
    </g>
  </g>
  <g id="line2d_1">
    <path id="ma64005d8db" class="st15" d="M196.4,383.4v3.5"/>
  </g>
  <g id="text_1">
    <text class="st13" transform="translate(143.1 402.6)"><tspan x="0" y="0">May 29, 2023</tspan></text>
  </g>
  <g id="line2d_2">
    <path id="ma64005d8db1" data-name="ma64005d8db" class="st15" d="M398.3,383.4v3.5"/>
  </g>
  <g id="text_2">
    <text class="st13" transform="translate(361.7 402.6)"><tspan x="0" y="0">July 2024</tspan></text>
  </g>
  <g id="line2d_3">
    <path id="ma64005d8db2" data-name="ma64005d8db" class="st15" d="M600.2,383.4v3.5"/>
  </g>
  <g id="text_3">
    <text class="st13" transform="translate(551.9 402.6)"><tspan x="0" y="0">May 5, 2025</tspan></text>
  </g>
  <g id="text_4">
    <text class="st13" transform="translate(380.4 424)"><tspan x="0" y="0">Date</tspan></text>
  </g>
  <g id="line2d_4">
    <g class="st4">
      <path class="st1" d="M87.4,381.4h621.8"/>
    </g>
  </g>
  <g id="line2d_5">
    <path id="madbafc73a2" class="st15" d="M87.4,381.4h-3.5"/>
  </g>
  <g id="text_5">
    <text class="st13" transform="translate(70.3 387.5)"><tspan x="0" y="0">0</tspan></text>
  </g>
  <g id="line2d_6">
    <g class="st5">
      <path class="st1" d="M87.4,318h621.8"/>
    </g>
  </g>
  <g id="line2d_7">
    <path id="madbafc73a21" data-name="madbafc73a2" class="st15" d="M87.4,318h-3.5"/>
  </g>
  <text class="st13" transform="translate(39.9 324.1)"><tspan x="0" y="0">2000</tspan></text>
  <g id="line2d_8">
    <g class="st10">
      <path class="st1" d="M87.4,254.6h621.8"/>
    </g>
  </g>
  <g id="line2d_9">
    <path id="madbafc73a22" data-name="madbafc73a2" class="st15" d="M87.4,254.6h-3.5"/>
  </g>
  <g id="text_7">
    <text class="st13" transform="translate(39.9 260.7)"><tspan x="0" y="0">4000</tspan></text>
  </g>
  <g id="line2d_10">
    <g class="st8">
      <path class="st1" d="M87.4,191.3h621.8"/>
    </g>
  </g>
  <g id="line2d_11">
    <path id="madbafc73a23" data-name="madbafc73a2" class="st15" d="M87.4,191.3h-3.5"/>
  </g>
  <g id="text_8">
    <text class="st13" transform="translate(39.9 197.3)"><tspan x="0" y="0">6000</tspan></text>
  </g>
  <g id="line2d_12">
    <g class="st7">
      <path class="st1" d="M87.4,127.9h621.8"/>
    </g>
  </g>
  <g id="line2d_13">
    <path id="madbafc73a24" data-name="madbafc73a2" class="st15" d="M87.4,127.9h-3.5"/>
  </g>
  <g id="text_9">
    <text class="st13" transform="translate(39.9 134)"><tspan x="0" y="0">8000</tspan></text>
  </g>
  <g id="line2d_14">
    <g class="st9">
      <path class="st1" d="M87.4,64.5h621.8"/>
    </g>
  </g>
  <g id="line2d_15">
    <path id="madbafc73a25" data-name="madbafc73a2" class="st15" d="M87.4,64.5h-3.5"/>
  </g>
  <g id="text_10">
    <text class="st13" transform="translate(29.8 70.6)"><tspan x="0" y="0">10000</tspan></text>
  </g>
  <g id="text_11">
    <text class="st13" transform="translate(22.2 295.2) rotate(-90)"><tspan x="0" y="0">Count of Active Sheds</tspan></text>
  </g>
  <g id="text_12">
    <text class="st14" transform="translate(176.5 88.5)"><tspan x="0" y="0">8,909</tspan></text>
  </g>
  <g id="text_13">
    <text class="st14" transform="translate(374 43.1)"><tspan x="0" y="0">10,276</tspan></text>
  </g>
  <g id="text_14">
    <text class="st14" transform="translate(580.3 100.9)"><tspan x="0" y="0">8,547</tspan></text>
  </g>
</svg>